<?xml version="1.0" encoding="utf-8"?>
<!-- Generator: Adobe Illustrator 18.1.1, SVG Export Plug-In . SVG Version: 6.00 Build 0)  -->
<!DOCTYPE svg PUBLIC "-//W3C//DTD SVG 1.1//EN" "http://www.w3.org/Graphics/SVG/1.1/DTD/svg11.dtd">
<svg version="1.1" xmlns="http://www.w3.org/2000/svg" xmlns:xlink="http://www.w3.org/1999/xlink" x="0px" y="0px"
	 viewBox="0 0 939 59.1" enable-background="new 0 0 939 59.1" xml:space="preserve">
<g id="BACKGROUND">
</g>
<g id="ART">
</g>
<g id="NAVIGATION">
	<g>
		<g>
			<g>
				<polygon fill="#FFFFFF" points="23.3,0.6 0,58.5 7.8,58.5 31.1,0.6 				"/>
				<polygon fill="#FFFFFF" points="44.2,0.6 21,58.5 28.8,58.5 52.1,0.6 				"/>
			</g>
			<g>
				<path fill="#FFFFFF" d="M88.5,59C74.7,59,65,50.4,65,34.4V1h4.2v33c0,13.5,7.3,21.2,19.4,21.2c11.6,0,19-7,19-20.8V1h4.2v32.9
					C111.9,50.3,102.3,59,88.5,59z"/>
				<path fill="#FFFFFF" d="M168.3,58.1L128,7.4v50.8h-4.1V1h4l39.4,49.7V1h4.1v57.2H168.3z"/>
				<path fill="#FFFFFF" d="M210.6,59.1c-18,0-28.7-13.3-28.7-29.4v-0.2C181.8,14.1,193,0,210.1,0c9.3,0,15.2,2.8,20.9,7.5l-2.8,3.2
					c-4.5-3.9-9.7-6.9-18.4-6.9c-13.9,0-23.6,11.8-23.6,25.6v0.2c0,14.8,9.2,25.8,24.5,25.8c7.3,0,14-3,18.2-6.5V32.4h-19.1v-3.9
					H233v22C227.9,55.1,219.9,59.1,210.6,59.1z"/>
				<path fill="#FFFFFF" d="M244.3,58.1V1H285v3.9h-36.4v22.5h32.7v3.9h-32.7v22.9h36.8v3.9H244.3z"/>
				<path fill="#FFFFFF" d="M336.1,58.1l-18.2-23.7h-18.7v23.7H295V1h24c12.3,0,20.4,6.7,20.4,16.2v0.2c0,9.6-7.1,15-16.7,16.3
					l18.9,24.4H336.1z M335.1,17.4c0-7.7-6-12.5-16.4-12.5h-19.5v25.7h19.3c9.6,0,16.7-4.8,16.7-13.1V17.4z"/>
				<path fill="#FFFFFF" d="M374.8,58.1h-24.8V1h23.6c11.1,0,18.5,5.5,18.5,14v0.2c0,7.8-5.1,11.7-9.7,13.6
					c6.9,1.8,12.9,5.7,12.9,13.6v0.2C395.3,52.1,387.1,58.1,374.8,58.1z M387.8,15.4c0-6.3-5.1-10.5-14.3-10.5h-19.3v22.5H373
					c8.6,0,14.7-4.2,14.7-11.8V15.4z M390.9,42.4c0-7-6.1-11.1-17.4-11.1h-19.4v22.9h20.7c9.8,0,16-4.5,16-11.7V42.4z"/>
				<path fill="#FFFFFF" d="M431,59.1c-17.3,0-28.7-13.8-28.7-29.4v-0.2C402.3,14,413.8,0,431.1,0c17.3,0,28.7,13.8,28.7,29.4
					c0.1,0.1,0.1,0.1,0,0.2C459.8,45.2,448.3,59.1,431,59.1z M455.4,29.6c0-14.1-10.3-25.7-24.4-25.7s-24.3,11.4-24.3,25.6v0.2
					c0,14.1,10.3,25.7,24.4,25.7s24.3-11.4,24.3-25.6V29.6z"/>
				<path fill="#FFFFFF" d="M470.2,58.1V1h40.7v3.9h-36.4v22.5h32.7v3.9h-32.7v22.9h36.8v3.9H470.2z"/>
				<path fill="#FFFFFF" d="M546.7,59.1c-16.3,0-28.4-13-28.4-29.4v-0.2c0-16.2,12.1-29.6,28.6-29.6c10.2,0,16.3,3.8,22.2,9.1
					l-3,3.1c-5-4.8-10.7-8.4-19.3-8.4c-13.7,0-24.1,11.2-24.1,25.6v0.2c0,14.5,10.5,25.7,24.2,25.7c8.2,0,13.9-3.2,19.7-8.9l2.9,2.8
					C563.4,55.1,556.8,59.1,546.7,59.1z"/>
				<path fill="#FFFFFF" d="M619,58.1l-23.5-28.9l-14.2,14.4v14.5H577V1h4.2v37.6L617.7,1h5.8l-25,25.2l26,31.9H619z"/>
			</g>
		</g>
		<g>
			<path fill="#FFFFFF" d="M654.9,58.1h-21.3V1h21.3c18,0,30.4,12.3,30.4,28.5S672.9,58.1,654.9,58.1z M654.9,10.1h-11.3V49h11.3
				c12,0,19.8-8.1,19.8-19.4S666.9,10.1,654.9,10.1z"/>
			<path fill="#FFFFFF" d="M704,1v57.2h-10V1H704z"/>
			<path fill="#FFFFFF" d="M742.3,59.1c-17.9,0-29.6-12.7-29.6-29.5c0-16.1,12.3-29.6,29.5-29.6c10,0,16.1,2.8,22,7.8l-6.4,7.6
				c-4.4-3.8-8.7-6.1-16-6.1c-10.5,0-18.5,9.1-18.5,20.2c0,11.8,7.8,20.5,19.4,20.5c5.4,0,10.3-1.7,13.8-4.3V34.9h-14.6v-8.7h24.3
				v24C760.5,55,752.4,59.1,742.3,59.1z"/>
			<path fill="#FFFFFF" d="M785.8,1v57.2h-10V1H785.8z"/>
			<path fill="#FFFFFF" d="M821.1,58.1H811V10.3h-18.1V1h46.4v9.3h-18.1V58.1z"/>
			<path fill="#FFFFFF" d="M893.2,58.1h-10.6l-5.8-13.8h-27l-5.9,13.8h-10.3l25.1-57.6h9.3L893.2,58.1z M863.2,12.6l-9.8,22.9h19.7
				L863.2,12.6z"/>
			<path fill="#FFFFFF" d="M898.9,1h10v48H939v9.1h-40.1V1z"/>
		</g>
	</g>
</g>
<g id="Layer_4">
</g>
<g id="Layer_5">
</g>
</svg>
